<?xml version="1.0" encoding="iso-8859-1"?>
<!-- Generator: Adobe Illustrator 16.0.0, SVG Export Plug-In . SVG Version: 6.00 Build 0)  -->
<!DOCTYPE svg PUBLIC "-//W3C//DTD SVG 1.1//EN" "http://www.w3.org/Graphics/SVG/1.1/DTD/svg11.dtd">
<svg version="1.1" id="Capa_1" xmlns="http://www.w3.org/2000/svg" xmlns:xlink="http://www.w3.org/1999/xlink" x="0px" y="0px"
	 width="162.359px" height="162.358px" viewBox="0 0 162.359 162.358" style="enable-background:new 0 0 162.359 162.358;"
	 xml:space="preserve">
<g>
	<path d="M160.07,77.245l-11.074-7.501c-0.659-0.448-1.508-0.496-2.226-0.119c-0.706,0.375-1.145,1.113-1.145,1.912v3.208
		c-0.701-0.237-1.429-0.448-2.22-0.448c-3.037,0-5.537,1.996-6.455,4.725h-8.664V48.075c0-1.194-0.976-2.162-2.156-2.162
		c-1.192,0-2.162,0.968-2.162,2.162c0,12.031-9.777,21.816-21.806,21.816c-9.382,0-17.013-7.636-17.013-17.018
		c0-7.267,5.914-13.187,13.179-13.187c5.568,0.006,10.104,4.549,10.104,10.12c0,2.463-1.181,4.633-2.995,6.033
		c-0.232-2.513-2.278-4.493-4.847-4.493c-2.726,0-4.94,2.201-4.94,4.936c0,2.196,1.466,3.995,3.443,4.633
		c0.396,0.512,0.986,0.87,1.682,0.87c6.613,0,11.987-5.374,11.987-11.979c0-7.95-6.471-14.423-14.423-14.434
		c-8.527,0-15.628,6.133-17.168,14.217c-1.545-8.079-8.646-14.207-17.165-14.207c-7.955,0-14.426,6.468-14.426,14.423
		c0,6.605,5.374,11.979,11.979,11.979c0.609,0,1.155-0.256,1.543-0.664c2.054-0.602,3.586-2.426,3.586-4.673
		c0-2.721-2.212-4.936-4.941-4.936c-2.516,0-4.52,1.917-4.82,4.353c-1.828-1.405-3.03-3.586-3.03-6.059
		c0-5.571,4.535-10.109,10.106-10.109c7.27,0,13.184,5.914,13.184,13.176c0,9.382-7.63,17.018-17.012,17.018
		c-12.023,0-21.809-9.785-21.809-21.816c0-1.194-0.968-2.162-2.162-2.162c-1.191,0-2.159,0.968-2.159,2.162v30.947h-8.672
		c-0.913-2.734-3.412-4.735-6.452-4.735c-0.789,0-1.513,0.203-2.215,0.448v-3.198c0-0.799-0.443-1.532-1.144-1.912
		c-0.696-0.372-1.561-0.329-2.226,0.119L2.262,77.24C0.825,78.208,0,79.64,0,81.169s0.82,2.964,2.257,3.944l11.069,7.51
		c0.361,0.253,0.789,0.369,1.216,0.369c0.345,0,0.69-0.085,1.01-0.243c0.707-0.369,1.149-1.107,1.149-1.909v-3.217
		c0.702,0.243,1.432,0.443,2.22,0.443c3.041,0,5.535-1.993,6.452-4.725h8.672v30.944c0,1.191,0.968,2.162,2.159,2.162
		c1.194,0,2.162-0.976,2.162-2.162c0-12.04,9.785-21.821,21.809-21.821c9.381,0,17.012,7.636,17.012,17.022
		c0,7.267-5.914,13.178-13.176,13.178c-5.574,0-10.109-4.551-10.109-10.114c0-2.468,1.187-4.635,2.996-6.033
		c0.231,2.516,2.28,4.493,4.849,4.493c2.729,0,4.941-2.198,4.941-4.936c0-2.199-1.464-3.992-3.444-4.636
		c-0.396-0.506-0.989-0.864-1.685-0.864c-6.604,0-11.979,5.368-11.979,11.981c0,7.952,6.471,14.417,14.426,14.428
		c8.524,0,15.625-6.128,17.165-14.217c1.545,8.078,8.646,14.206,17.162,14.206c7.958,0,14.429-6.465,14.429-14.417
		c0-6.613-5.374-11.981-11.987-11.981c-0.601,0-1.149,0.253-1.534,0.664c-2.062,0.602-3.586,2.426-3.586,4.673
		c0,2.721,2.215,4.936,4.941,4.936c2.516,0,4.52-1.92,4.819-4.361c1.836,1.408,3.038,3.586,3.038,6.064
		c0,5.563-4.535,10.104-10.114,10.104c-7.27,0-13.176-5.911-13.176-13.167c0-9.387,7.628-17.022,17.009-17.022
		c12.029,0,21.806,9.787,21.806,21.821c0,1.191,0.971,2.162,2.162,2.162c1.182,0,2.157-0.976,2.157-2.162V83.342h8.664
		c0.918,2.731,3.417,4.735,6.455,4.735c0.791,0,1.514-0.2,2.22-0.454v3.207c0,0.801,0.443,1.529,1.145,1.914
		c0.316,0.163,0.664,0.253,1.013,0.253c0.433,0,0.854-0.121,1.224-0.374l11.074-7.505c1.434-0.976,2.268-2.399,2.268-3.929
		C162.359,79.65,161.515,78.224,160.07,77.245z M123.973,62.456v16.566h-1.303c-0.337-0.557-0.791-1.076-1.387-1.49l-8.39-5.688
		C117.397,69.805,121.257,66.554,123.973,62.456z M38.362,62.456c2.71,4.098,6.565,7.354,11.084,9.399l-8.398,5.688
		c-0.604,0.409-1.058,0.929-1.408,1.484h-1.278V62.456z M38.362,99.91V83.342h1.294c0.345,0.559,0.789,1.08,1.392,1.486l8.377,5.69
		C44.921,92.56,41.072,95.818,38.362,99.91z M81.161,106.207c-1.593-10.199-10.362-18.046-20.996-18.046
		c-2.128,0-4.179,0.274-6.159,0.765v-5.574h11.588c1.192,0,2.16-0.965,2.16-2.162c0-1.191-0.967-2.156-2.16-2.156H54.005v-5.58
		c1.975,0.483,4.031,0.757,6.154,0.757c10.634,0,19.404-7.852,20.997-18.045c1.592,10.198,10.356,18.045,20.996,18.045
		c2.12,0,4.171-0.274,6.154-0.757v5.574H96.714c-1.191,0-2.151,0.971-2.151,2.162c0,1.192,0.971,2.157,2.151,2.157h11.592v5.579
		c-1.973-0.49-4.034-0.765-6.154-0.765C91.529,88.161,82.753,96.008,81.161,106.207z M123.973,99.91
		c-2.716-4.103-6.565-7.346-11.079-9.392l8.39-5.69c0.596-0.406,1.05-0.928,1.408-1.492h1.281V99.91z"/>
</g>
<g>
</g>
<g>
</g>
<g>
</g>
<g>
</g>
<g>
</g>
<g>
</g>
<g>
</g>
<g>
</g>
<g>
</g>
<g>
</g>
<g>
</g>
<g>
</g>
<g>
</g>
<g>
</g>
<g>
</g>
</svg>
